<?xml version="1.0" encoding="UTF-8"?>
<svg width="88px" height="30px" viewBox="0 0 88 30" version="1.1" xmlns="http://www.w3.org/2000/svg" xmlns:xlink="http://www.w3.org/1999/xlink">
    <!-- Generator: sketchtool 50 (54983) - http://www.bohemiancoding.com/sketch -->
    <title>89A99A5A-73ED-4350-A354-FEF763426F78</title>
    <desc>Created with sketchtool.</desc>
    <defs>
        <polygon id="path-1" points="0 0.0001 0 30 29.9997 30 29.9997 0.0001"></polygon>
    </defs>
    <g id="Symbols" stroke="none" stroke-width="1" fill="none" fill-rule="evenodd">
        <g id="icon/fulllogo_small">
            <g>
                <g id="Group-21" transform="translate(36.000000, 4.000000)" fill="#000000">
                    <path d="M10.0117,18.2492 L6.5417,18.2492 L6.5417,15.0972 C6.5417,14.5322 6.0837,14.0732 5.5177,14.0732 C4.9517,14.0732 4.4937,14.5322 4.4937,15.0972 L4.4937,18.2492 L1.0237,18.2492 C0.4587,18.2492 -0.0003,18.7072 -0.0003,19.2732 C-0.0003,19.8392 0.4587,20.2972 1.0237,20.2972 L10.0117,20.2972 C10.5767,20.2972 11.0357,19.8392 11.0357,19.2732 C11.0357,18.7072 10.5767,18.2492 10.0117,18.2492" id="Fill-1"></path>
                    <path d="M3.168,6.9518 C3.168,3.7138 4.64,3.2298 5.518,3.2298 C6.396,3.2298 7.867,3.7138 7.867,6.9518 L7.867,7.0788 L7.867,7.2068 C7.867,10.4448 6.396,10.9288 5.518,10.9288 C4.64,10.9288 3.168,10.4448 3.168,7.2068 L3.168,7.0788 L3.168,6.9518 Z M5.518,12.9758 C8.23,12.9758 9.916,10.7648 9.916,7.2068 L9.916,7.0788 L9.916,6.9518 C9.916,3.3928 8.23,1.1818 5.518,1.1818 C2.805,1.1818 1.12,3.3928 1.12,6.9518 L1.12,7.0788 L1.12,7.2068 C1.12,10.7648 2.805,12.9758 5.518,12.9758 Z" id="Fill-3"></path>
                    <path d="M23.5278,7.7951 L12.5528,7.7951 C11.9878,7.7951 11.5288,8.2531 11.5288,8.8191 C11.5288,9.3841 11.9878,9.8431 12.5528,9.8431 L23.5278,9.8431 C24.0928,9.8431 24.5518,9.3841 24.5518,8.8191 C24.5518,8.2531 24.0928,7.7951 23.5278,7.7951" id="Fill-5"></path>
                    <path d="M22.4326,18.7218 C17.4446,20.0178 15.7726,19.2808 15.2856,18.9038 C14.9656,18.6568 14.8236,18.3338 14.8236,17.8558 L14.8236,17.2458 L22.0546,17.2458 C22.6196,17.2458 23.0786,16.7878 23.0786,16.2218 L23.0786,12.6408 C23.0786,12.0758 22.6196,11.6168 22.0546,11.6168 L13.7996,11.6168 C13.2336,11.6168 12.7756,12.0758 12.7756,12.6408 C12.7756,13.2058 13.2336,13.6648 13.7996,13.6648 L21.0306,13.6648 L21.0306,15.1978 L13.7996,15.1978 C13.2336,15.1978 12.7756,15.6568 12.7756,16.2218 L12.7756,17.8558 C12.7756,18.9648 13.2096,19.8878 14.0326,20.5238 C14.8746,21.1758 16.1026,21.5008 17.7046,21.5008 C19.1506,21.5008 20.9016,21.2358 22.9476,20.7038 C23.4946,20.5618 23.8236,20.0028 23.6816,19.4548 C23.5386,18.9078 22.9806,18.5798 22.4326,18.7218" id="Fill-7"></path>
                    <path d="M14.3179,6.0211 L21.9399,6.0211 C22.5049,6.0211 22.9629,5.5631 22.9629,4.9971 C22.9629,4.4311 22.5049,3.9731 21.9399,3.9731 L15.3419,3.9731 L15.3419,1.5251 C15.3419,0.9591 14.8829,0.5011 14.3179,0.5011 C13.7529,0.5011 13.2939,0.9591 13.2939,1.5251 L13.2939,4.9971 C13.2939,5.5631 13.7529,6.0211 14.3179,6.0211" id="Fill-9"></path>
                    <path d="M50.6396,0.8449 C50.0746,0.8449 49.6156,1.3029 49.6156,1.8689 L49.6156,10.1309 C49.6156,10.6969 50.0746,11.1549 50.6396,11.1549 C51.2046,11.1549 51.6636,10.6969 51.6636,10.1309 L51.6636,1.8689 C51.6636,1.3029 51.2046,0.8449 50.6396,0.8449" id="Fill-11"></path>
                    <path d="M45.4712,9.8605 C45.6232,10.2745 46.0152,10.5315 46.4322,10.5315 C46.5482,10.5315 46.6662,10.5115 46.7822,10.4705 C47.3132,10.2775 47.5882,9.6905 47.3952,9.1585 C47.3622,9.0675 46.6922,7.2695 45.0172,5.9895 L47.6172,3.0965 C47.8882,2.7955 47.9562,2.3645 47.7912,1.9945 C47.6272,1.6255 47.2602,1.3875 46.8562,1.3875 L40.4772,1.3875 C39.9122,1.3875 39.4532,1.8465 39.4532,2.4115 C39.4532,2.9775 39.9122,3.4355 40.4772,3.4355 L44.5582,3.4355 L39.7162,8.8225 C39.3382,9.2435 39.3722,9.8905 39.7932,10.2685 C39.9882,10.4445 40.2332,10.5315 40.4772,10.5315 C40.7572,10.5315 41.0362,10.4175 41.2392,10.1925 L43.6422,7.5195 C44.9142,8.4185 45.4582,9.8265 45.4712,9.8605" id="Fill-13"></path>
                    <path d="M49.0415,19.1959 L44.0965,19.1959 C43.7795,19.1959 43.5215,18.9379 43.5215,18.6219 L43.5215,17.2459 L49.6155,17.2459 L49.6155,18.6219 C49.6155,18.9379 49.3585,19.1959 49.0415,19.1959 M50.6395,12.5919 C50.0745,12.5919 49.6155,13.0499 49.6155,13.6149 L49.6155,15.1979 L43.5215,15.1979 L43.5215,13.6149 C43.5215,13.0499 43.0635,12.5919 42.4985,12.5919 C41.9325,12.5919 41.4745,13.0499 41.4745,13.6149 L41.4745,18.6219 C41.4745,20.0669 42.6505,21.2439 44.0965,21.2439 L49.0415,21.2439 C50.4875,21.2439 51.6635,20.0669 51.6635,18.6219 L51.6635,13.6149 C51.6635,13.0499 51.2055,12.5919 50.6395,12.5919" id="Fill-15"></path>
                    <path d="M29.9375,3.2301 C31.4975,3.2301 31.5765,6.2161 31.5765,6.8141 C31.5765,7.4131 31.4975,10.3981 29.9375,10.3981 C28.3765,10.3981 28.2985,7.4131 28.2985,6.8141 C28.2985,6.2161 28.3765,3.2301 29.9375,3.2301 M29.9375,12.4461 C31.1775,12.4461 32.2115,11.7891 32.8515,10.5941 C33.3575,9.6481 33.6245,8.3421 33.6245,6.8141 C33.6245,5.2871 33.3575,3.9801 32.8515,3.0341 C32.2115,1.8401 31.1775,1.1821 29.9375,1.1821 C28.6975,1.1821 27.6625,1.8401 27.0235,3.0341 C26.5175,3.9801 26.2495,5.2871 26.2495,6.8141 C26.2495,8.3421 26.5175,9.6481 27.0235,10.5941 C27.6625,11.7891 28.6975,12.4461 29.9375,12.4461" id="Fill-17"></path>
                    <path d="M36.2363,0.8449 C35.6713,0.8449 35.2123,1.3029 35.2123,1.8689 L35.2123,14.4019 C33.8553,14.8249 31.1623,15.1969 27.8993,15.1969 L26.3403,15.1969 C25.7753,15.1969 25.3173,15.6559 25.3173,16.2209 C25.3173,16.7859 25.7753,17.2449 26.3403,17.2449 L27.8993,17.2449 C29.7613,17.2449 32.9823,17.0809 35.2123,16.5269 L35.2123,19.9369 C35.2123,20.5019 35.6713,20.9609 36.2363,20.9609 C36.8013,20.9609 37.2603,20.5019 37.2603,19.9369 L37.2603,1.8689 C37.2603,1.3029 36.8013,0.8449 36.2363,0.8449" id="Fill-19"></path>
                </g>
                <g id="Group-27">
                    <g id="Group-24">
                        <mask id="mask-2" fill="white">
                            <use xlink:href="#path-1"></use>
                        </mask>
                        <g id="Clip-23"></g>
                        <path d="M24.6147,0.0001 L5.3847,0.0001 C2.4107,0.0001 -0.0003,2.4111 -0.0003,5.3851 L-0.0003,24.6151 C-0.0003,27.5891 2.4107,30.0001 5.3847,30.0001 L24.6147,30.0001 C27.5887,30.0001 29.9997,27.5891 29.9997,24.6151 L29.9997,5.3851 C29.9997,2.4111 27.5887,0.0001 24.6147,0.0001" id="Fill-22" fill="#35C5F0" mask="url(#mask-2)"></path>
                    </g>
                    <path d="M22.2998,15.5128 C21.1888,15.5128 20.2878,14.6118 20.2878,13.4998 C20.2878,12.3888 21.1888,11.4878 22.2998,11.4878 C23.4108,11.4878 24.3128,12.3888 24.3128,13.4998 C24.3128,14.6118 23.4108,15.5128 22.2998,15.5128 Z M20.7998,20.7998 L9.1998,20.7998 L9.1998,13.1178 L14.9998,9.0738 L18.3238,11.3918 C17.9898,12.0208 17.7998,12.7378 17.7998,13.4998 C17.7998,15.4588 19.0518,17.1248 20.7998,17.7428 L20.7998,20.7998 Z M22.2998,8.9998 C21.7888,8.9998 21.2978,9.0868 20.8388,9.2438 L16.0298,5.8898 C15.7198,5.6748 15.3598,5.5668 14.9998,5.5668 C14.6398,5.5668 14.2798,5.6748 13.9708,5.8898 L6.7698,10.9108 C6.2878,11.2478 5.9998,11.7988 5.9998,12.3878 L5.9998,22.1998 C5.9998,23.1948 6.8058,23.9998 7.7998,23.9998 L22.1998,23.9998 C23.1938,23.9998 23.9998,23.1948 23.9998,22.1998 L23.9998,17.6668 C25.6418,16.9958 26.7998,15.3838 26.7998,13.4998 C26.7998,11.0148 24.7848,8.9998 22.2998,8.9998 Z" id="Fill-25" fill="#FFFFFF"></path>
                </g>
            </g>
        </g>
    </g>
</svg>