<?xml version="1.0" encoding="UTF-8"?>
<svg width="24px" height="24px" viewBox="0 0 24 24" version="1.1" xmlns="http://www.w3.org/2000/svg" xmlns:xlink="http://www.w3.org/1999/xlink">
    <!-- Generator: sketchtool 50.2 (55047) - http://www.bohemiancoding.com/sketch -->
    <title>8959D28E-DBFE-4289-B48C-41672043B409</title>
    <desc>Created with sketchtool.</desc>
    <defs>
        <path d="M6.57777778,5.77777778 L8,2.22222222 L16,2.22222222 L17.4222222,5.77777778 L23.1111111,5.77777778 L23.1111111,21.7777778 L0.888888889,21.7777778 L0.888888889,5.77777778 L6.57777778,5.77777778 Z M12,18.6666667 C14.9455187,18.6666667 17.3333333,16.278852 17.3333333,13.3333333 C17.3333333,10.3878147 14.9455187,8 12,8 C9.05448133,8 6.66666667,10.3878147 6.66666667,13.3333333 C6.66666667,16.278852 9.05448133,18.6666667 12,18.6666667 Z" id="path-1"></path>
    </defs>
    <g id="Symbols" stroke="none" stroke-width="1" fill="none" fill-rule="evenodd">
        <g id="ic/camera/solid/0.26/ic_camera_solid_0.26">
            <mask id="mask-2" fill="white">
                <use xlink:href="#path-1"></use>
            </mask>
            <path stroke-opacity="0.25999999" stroke="#000000" stroke-width="0.888888889" d="M6.27687424,5.33333333 L7.69909646,1.77777778 L16.3009035,1.77777778 L17.7231258,5.33333333 L23.5555556,5.33333333 L23.5555556,22.2222222 L0.444444444,22.2222222 L0.444444444,5.33333333 L6.27687424,5.33333333 Z M12,18.2222222 C14.7000588,18.2222222 16.8888889,16.0333921 16.8888889,13.3333333 C16.8888889,10.6332746 14.7000588,8.44444444 12,8.44444444 C9.29994122,8.44444444 7.11111111,10.6332746 7.11111111,13.3333333 C7.11111111,16.0333921 9.29994122,18.2222222 12,18.2222222 Z"></path>
            <g id="color/black/0.26" mask="url(#mask-2)" fill="#000000" fill-opacity="0.25999999">
                <rect id="Rectangle-13" x="0" y="0" width="24" height="24"></rect>
            </g>
        </g>
    </g>
</svg>